<svg xmlns="http://www.w3.org/2000/svg" width="800" height="600" viewBox="0 0 800 600" font-family="Arial, Helvetica, sans-serif">
<defs>
  <clipPath id="r"><rect width="800" height="600" rx="28"/></clipPath>
  <radialGradient id="glow" cx="50%" cy="0%" r="80%">
    <stop offset="0%" stop-color="#00B07C" stop-opacity="0.22"/>
    <stop offset="60%" stop-color="#00B07C" stop-opacity="0"/>
  </radialGradient>
</defs>
<g clip-path="url(#r)">
  <rect width="800" height="600" fill="#141414"/>
  <line x1="0" y1="0" x2="0" y2="600" stroke="rgba(255,255,255,0.03)" stroke-width="1"/><line x1="48" y1="0" x2="48" y2="600" stroke="rgba(255,255,255,0.03)" stroke-width="1"/><line x1="96" y1="0" x2="96" y2="600" stroke="rgba(255,255,255,0.03)" stroke-width="1"/><line x1="144" y1="0" x2="144" y2="600" stroke="rgba(255,255,255,0.03)" stroke-width="1"/><line x1="192" y1="0" x2="192" y2="600" stroke="rgba(255,255,255,0.03)" stroke-width="1"/><line x1="240" y1="0" x2="240" y2="600" stroke="rgba(255,255,255,0.03)" stroke-width="1"/><line x1="288" y1="0" x2="288" y2="600" stroke="rgba(255,255,255,0.03)" stroke-width="1"/><line x1="336" y1="0" x2="336" y2="600" stroke="rgba(255,255,255,0.03)" stroke-width="1"/><line x1="384" y1="0" x2="384" y2="600" stroke="rgba(255,255,255,0.03)" stroke-width="1"/><line x1="432" y1="0" x2="432" y2="600" stroke="rgba(255,255,255,0.03)" stroke-width="1"/><line x1="480" y1="0" x2="480" y2="600" stroke="rgba(255,255,255,0.03)" stroke-width="1"/><line x1="528" y1="0" x2="528" y2="600" stroke="rgba(255,255,255,0.03)" stroke-width="1"/><line x1="576" y1="0" x2="576" y2="600" stroke="rgba(255,255,255,0.03)" stroke-width="1"/><line x1="624" y1="0" x2="624" y2="600" stroke="rgba(255,255,255,0.03)" stroke-width="1"/><line x1="672" y1="0" x2="672" y2="600" stroke="rgba(255,255,255,0.03)" stroke-width="1"/><line x1="720" y1="0" x2="720" y2="600" stroke="rgba(255,255,255,0.03)" stroke-width="1"/><line x1="768" y1="0" x2="768" y2="600" stroke="rgba(255,255,255,0.03)" stroke-width="1"/><line x1="0" y1="0" x2="800" y2="0" stroke="rgba(255,255,255,0.03)" stroke-width="1"/><line x1="0" y1="48" x2="800" y2="48" stroke="rgba(255,255,255,0.03)" stroke-width="1"/><line x1="0" y1="96" x2="800" y2="96" stroke="rgba(255,255,255,0.03)" stroke-width="1"/><line x1="0" y1="144" x2="800" y2="144" stroke="rgba(255,255,255,0.03)" stroke-width="1"/><line x1="0" y1="192" x2="800" y2="192" stroke="rgba(255,255,255,0.03)" stroke-width="1"/><line x1="0" y1="240" x2="800" y2="240" stroke="rgba(255,255,255,0.03)" stroke-width="1"/><line x1="0" y1="288" x2="800" y2="288" stroke="rgba(255,255,255,0.03)" stroke-width="1"/><line x1="0" y1="336" x2="800" y2="336" stroke="rgba(255,255,255,0.03)" stroke-width="1"/><line x1="0" y1="384" x2="800" y2="384" stroke="rgba(255,255,255,0.03)" stroke-width="1"/><line x1="0" y1="432" x2="800" y2="432" stroke="rgba(255,255,255,0.03)" stroke-width="1"/><line x1="0" y1="480" x2="800" y2="480" stroke="rgba(255,255,255,0.03)" stroke-width="1"/><line x1="0" y1="528" x2="800" y2="528" stroke="rgba(255,255,255,0.03)" stroke-width="1"/><line x1="0" y1="576" x2="800" y2="576" stroke="rgba(255,255,255,0.03)" stroke-width="1"/>
  <rect width="800" height="600" fill="url(#glow)"/>
  
    <rect x="70" y="120" width="330" height="74" rx="20" fill="#1C1C1C" stroke="#333"/>
    <rect x="94" y="146" width="200" height="11" rx="5" fill="#3A3A3A"/>
    <rect x="94" y="168" width="150" height="11" rx="5" fill="#3A3A3A"/>
    <rect x="180" y="216" width="330" height="74" rx="20" fill="rgba(0,176,124,0.16)" stroke="#00B07C" stroke-opacity="0.55"/>
    <rect x="204" y="242" width="240" height="11" rx="5" fill="#00B07C" opacity="0.8"/>
    <rect x="204" y="264" width="180" height="11" rx="5" fill="#00B07C" opacity="0.5"/>
    <rect x="70" y="312" width="260" height="60" rx="18" fill="#1C1C1C" stroke="#333"/>
    <rect x="94" y="336" width="170" height="11" rx="5" fill="#3A3A3A"/>
    <text x="540" y="250" font-size="92" font-weight="bold" fill="#00B07C">GPT</text>
    <text x="542" y="288" font-size="21" fill="#888">prompt systems</text>
  <text x="60" y="480" font-size="44" font-weight="bold" fill="#FFFFFF">ChatGPT Prompt Pack</text>
  <text x="60" y="522" font-size="21" fill="#888">The same system, tuned for GPT</text>
  <g transform="translate(686,44) scale(0.14)">
    <rect width="512" height="512" rx="110" fill="#1C1C1C"/>
    <g transform="rotate(45 256 256)"><rect x="86" y="218" width="340" height="76" fill="#FFFFFF"/></g>
    <g transform="rotate(-45 256 256)"><rect x="86" y="218" width="340" height="76" fill="#FF6B35"/></g>
  </g>
</g>
<rect x="1" y="1" width="798" height="598" rx="27" fill="none" stroke="#00B07C" stroke-opacity="0.35" stroke-width="2"/>
</svg>