<svg xmlns="http://www.w3.org/2000/svg" width="800" height="600" viewBox="0 0 800 600" font-family="Arial, Helvetica, sans-serif">
<defs>
  <clipPath id="r"><rect width="800" height="600" rx="28"/></clipPath>
  <radialGradient id="glow" cx="50%" cy="0%" r="80%">
    <stop offset="0%" stop-color="#F5C842" stop-opacity="0.22"/>
    <stop offset="60%" stop-color="#F5C842" stop-opacity="0"/>
  </radialGradient>
</defs>
<g clip-path="url(#r)">
  <rect width="800" height="600" fill="#141414"/>
  <line x1="0" y1="0" x2="0" y2="600" stroke="rgba(255,255,255,0.03)" stroke-width="1"/><line x1="48" y1="0" x2="48" y2="600" stroke="rgba(255,255,255,0.03)" stroke-width="1"/><line x1="96" y1="0" x2="96" y2="600" stroke="rgba(255,255,255,0.03)" stroke-width="1"/><line x1="144" y1="0" x2="144" y2="600" stroke="rgba(255,255,255,0.03)" stroke-width="1"/><line x1="192" y1="0" x2="192" y2="600" stroke="rgba(255,255,255,0.03)" stroke-width="1"/><line x1="240" y1="0" x2="240" y2="600" stroke="rgba(255,255,255,0.03)" stroke-width="1"/><line x1="288" y1="0" x2="288" y2="600" stroke="rgba(255,255,255,0.03)" stroke-width="1"/><line x1="336" y1="0" x2="336" y2="600" stroke="rgba(255,255,255,0.03)" stroke-width="1"/><line x1="384" y1="0" x2="384" y2="600" stroke="rgba(255,255,255,0.03)" stroke-width="1"/><line x1="432" y1="0" x2="432" y2="600" stroke="rgba(255,255,255,0.03)" stroke-width="1"/><line x1="480" y1="0" x2="480" y2="600" stroke="rgba(255,255,255,0.03)" stroke-width="1"/><line x1="528" y1="0" x2="528" y2="600" stroke="rgba(255,255,255,0.03)" stroke-width="1"/><line x1="576" y1="0" x2="576" y2="600" stroke="rgba(255,255,255,0.03)" stroke-width="1"/><line x1="624" y1="0" x2="624" y2="600" stroke="rgba(255,255,255,0.03)" stroke-width="1"/><line x1="672" y1="0" x2="672" y2="600" stroke="rgba(255,255,255,0.03)" stroke-width="1"/><line x1="720" y1="0" x2="720" y2="600" stroke="rgba(255,255,255,0.03)" stroke-width="1"/><line x1="768" y1="0" x2="768" y2="600" stroke="rgba(255,255,255,0.03)" stroke-width="1"/><line x1="0" y1="0" x2="800" y2="0" stroke="rgba(255,255,255,0.03)" stroke-width="1"/><line x1="0" y1="48" x2="800" y2="48" stroke="rgba(255,255,255,0.03)" stroke-width="1"/><line x1="0" y1="96" x2="800" y2="96" stroke="rgba(255,255,255,0.03)" stroke-width="1"/><line x1="0" y1="144" x2="800" y2="144" stroke="rgba(255,255,255,0.03)" stroke-width="1"/><line x1="0" y1="192" x2="800" y2="192" stroke="rgba(255,255,255,0.03)" stroke-width="1"/><line x1="0" y1="240" x2="800" y2="240" stroke="rgba(255,255,255,0.03)" stroke-width="1"/><line x1="0" y1="288" x2="800" y2="288" stroke="rgba(255,255,255,0.03)" stroke-width="1"/><line x1="0" y1="336" x2="800" y2="336" stroke="rgba(255,255,255,0.03)" stroke-width="1"/><line x1="0" y1="384" x2="800" y2="384" stroke="rgba(255,255,255,0.03)" stroke-width="1"/><line x1="0" y1="432" x2="800" y2="432" stroke="rgba(255,255,255,0.03)" stroke-width="1"/><line x1="0" y1="480" x2="800" y2="480" stroke="rgba(255,255,255,0.03)" stroke-width="1"/><line x1="0" y1="528" x2="800" y2="528" stroke="rgba(255,255,255,0.03)" stroke-width="1"/><line x1="0" y1="576" x2="800" y2="576" stroke="rgba(255,255,255,0.03)" stroke-width="1"/>
  <rect width="800" height="600" fill="url(#glow)"/>
  
    <!-- worksheet page -->
    <rect x="70" y="100" width="300" height="240" rx="14" fill="#FFFFFF" opacity="0.96"/>
    <rect x="70" y="100" width="300" height="52" rx="14" fill="#F5C842"/>
    <rect x="70" y="132" width="300" height="20" fill="#F5C842"/>
    <text x="94" y="136" font-size="26" font-weight="bold" fill="#1A1A1A">A B C · 1 2 3</text>
    <line x1="94" y1="190" x2="346" y2="190" stroke="#CCCCCC" stroke-width="2" stroke-dasharray="8 6"/>
    <line x1="94" y1="230" x2="346" y2="230" stroke="#CCCCCC" stroke-width="2" stroke-dasharray="8 6"/>
    <line x1="94" y1="270" x2="346" y2="270" stroke="#CCCCCC" stroke-width="2" stroke-dasharray="8 6"/>
    <text x="94" y="182" font-size="30" font-weight="bold" fill="#00B07C">A a</text>
    <text x="94" y="222" font-size="30" font-weight="bold" fill="#7B61FF">B b</text>
    <text x="94" y="262" font-size="30" font-weight="bold" fill="#FF6B35">1 2</text>
    <circle cx="330" cy="310" r="16" fill="#00B07C" opacity="0.9"/>
    <path d="M323 310 l6 6 l10 -12" stroke="#FFFFFF" stroke-width="3.5" fill="none" stroke-linecap="round"/>
    <!-- pencil -->
    <g transform="rotate(-32 520 240)">
      <rect x="470" y="216" width="180" height="48" rx="8" fill="#F5C842"/>
      <rect x="470" y="216" width="180" height="16" rx="8" fill="#E0B233"/>
      <path d="M650 216 L692 240 L650 264 Z" fill="#F0DCC0"/>
      <path d="M676 231 L692 240 L676 249 Z" fill="#333333"/>
      <rect x="452" y="216" width="22" height="48" rx="6" fill="#FF6B35"/>
    </g>
    <!-- playful shapes -->
    <circle cx="560" cy="140" r="14" fill="#7B61FF" opacity="0.85"/>
    <rect x="620" y="320" width="26" height="26" rx="6" fill="#00B07C" opacity="0.85" transform="rotate(14 633 333)"/>
    <path d="M480 350 l12 -22 l12 22 Z" fill="#FF6B35" opacity="0.9"/>
  <text x="60" y="480" font-size="44" font-weight="bold" fill="#FFFFFF">Kids Learning Worksheets</text>
  <text x="60" y="522" font-size="21" fill="#888">Printable practice packs for ages 2–8</text>
  <g transform="translate(686,44) scale(0.14)">
    <rect width="512" height="512" rx="110" fill="#1C1C1C"/>
    <g transform="rotate(45 256 256)"><rect x="86" y="218" width="340" height="76" fill="#FFFFFF"/></g>
    <g transform="rotate(-45 256 256)"><rect x="86" y="218" width="340" height="76" fill="#FF6B35"/></g>
  </g>
</g>
<rect x="1" y="1" width="798" height="598" rx="27" fill="none" stroke="#F5C842" stroke-opacity="0.35" stroke-width="2"/>
</svg>