<svg xmlns="http://www.w3.org/2000/svg" width="800" height="600" viewBox="0 0 800 600" font-family="Arial, Helvetica, sans-serif">
<defs>
  <clipPath id="r"><rect width="800" height="600" rx="28"/></clipPath>
  <radialGradient id="glow" cx="50%" cy="0%" r="80%">
    <stop offset="0%" stop-color="#FF6B35" stop-opacity="0.22"/>
    <stop offset="60%" stop-color="#FF6B35" stop-opacity="0"/>
  </radialGradient>
</defs>
<g clip-path="url(#r)">
  <rect width="800" height="600" fill="#141414"/>
  <line x1="0" y1="0" x2="0" y2="600" stroke="rgba(255,255,255,0.03)" stroke-width="1"/><line x1="48" y1="0" x2="48" y2="600" stroke="rgba(255,255,255,0.03)" stroke-width="1"/><line x1="96" y1="0" x2="96" y2="600" stroke="rgba(255,255,255,0.03)" stroke-width="1"/><line x1="144" y1="0" x2="144" y2="600" stroke="rgba(255,255,255,0.03)" stroke-width="1"/><line x1="192" y1="0" x2="192" y2="600" stroke="rgba(255,255,255,0.03)" stroke-width="1"/><line x1="240" y1="0" x2="240" y2="600" stroke="rgba(255,255,255,0.03)" stroke-width="1"/><line x1="288" y1="0" x2="288" y2="600" stroke="rgba(255,255,255,0.03)" stroke-width="1"/><line x1="336" y1="0" x2="336" y2="600" stroke="rgba(255,255,255,0.03)" stroke-width="1"/><line x1="384" y1="0" x2="384" y2="600" stroke="rgba(255,255,255,0.03)" stroke-width="1"/><line x1="432" y1="0" x2="432" y2="600" stroke="rgba(255,255,255,0.03)" stroke-width="1"/><line x1="480" y1="0" x2="480" y2="600" stroke="rgba(255,255,255,0.03)" stroke-width="1"/><line x1="528" y1="0" x2="528" y2="600" stroke="rgba(255,255,255,0.03)" stroke-width="1"/><line x1="576" y1="0" x2="576" y2="600" stroke="rgba(255,255,255,0.03)" stroke-width="1"/><line x1="624" y1="0" x2="624" y2="600" stroke="rgba(255,255,255,0.03)" stroke-width="1"/><line x1="672" y1="0" x2="672" y2="600" stroke="rgba(255,255,255,0.03)" stroke-width="1"/><line x1="720" y1="0" x2="720" y2="600" stroke="rgba(255,255,255,0.03)" stroke-width="1"/><line x1="768" y1="0" x2="768" y2="600" stroke="rgba(255,255,255,0.03)" stroke-width="1"/><line x1="0" y1="0" x2="800" y2="0" stroke="rgba(255,255,255,0.03)" stroke-width="1"/><line x1="0" y1="48" x2="800" y2="48" stroke="rgba(255,255,255,0.03)" stroke-width="1"/><line x1="0" y1="96" x2="800" y2="96" stroke="rgba(255,255,255,0.03)" stroke-width="1"/><line x1="0" y1="144" x2="800" y2="144" stroke="rgba(255,255,255,0.03)" stroke-width="1"/><line x1="0" y1="192" x2="800" y2="192" stroke="rgba(255,255,255,0.03)" stroke-width="1"/><line x1="0" y1="240" x2="800" y2="240" stroke="rgba(255,255,255,0.03)" stroke-width="1"/><line x1="0" y1="288" x2="800" y2="288" stroke="rgba(255,255,255,0.03)" stroke-width="1"/><line x1="0" y1="336" x2="800" y2="336" stroke="rgba(255,255,255,0.03)" stroke-width="1"/><line x1="0" y1="384" x2="800" y2="384" stroke="rgba(255,255,255,0.03)" stroke-width="1"/><line x1="0" y1="432" x2="800" y2="432" stroke="rgba(255,255,255,0.03)" stroke-width="1"/><line x1="0" y1="480" x2="800" y2="480" stroke="rgba(255,255,255,0.03)" stroke-width="1"/><line x1="0" y1="528" x2="800" y2="528" stroke="rgba(255,255,255,0.03)" stroke-width="1"/><line x1="0" y1="576" x2="800" y2="576" stroke="rgba(255,255,255,0.03)" stroke-width="1"/>
  <rect width="800" height="600" fill="url(#glow)"/>
  <g opacity="0.35">
          <rect x="96" y="150" width="340" height="180" rx="16" fill="#1C1C1C" stroke="#333" stroke-width="1.5"/>
          <rect x="120" y="178" width="120" height="14" rx="7" fill="#FF6B35"/>
          <rect x="120" y="212" width="280" height="10" rx="5" fill="#3A3A3A"/>
          <rect x="120" y="236" width="250" height="10" rx="5" fill="#3A3A3A"/>
          <rect x="120" y="260" width="265" height="10" rx="5" fill="#3A3A3A"/>
          <rect x="120" y="290" width="90" height="22" rx="11" fill="rgba(255,107,53,0.18)" stroke="#FF6B35" stroke-opacity="0.5"/>
        </g><g opacity="0.6">
          <rect x="76" y="130" width="340" height="180" rx="16" fill="#1C1C1C" stroke="#333" stroke-width="1.5"/>
          <rect x="100" y="158" width="120" height="14" rx="7" fill="#FF6B35"/>
          <rect x="100" y="192" width="280" height="10" rx="5" fill="#3A3A3A"/>
          <rect x="100" y="216" width="250" height="10" rx="5" fill="#3A3A3A"/>
          <rect x="100" y="240" width="265" height="10" rx="5" fill="#3A3A3A"/>
          <rect x="100" y="270" width="90" height="22" rx="11" fill="rgba(255,107,53,0.18)" stroke="#FF6B35" stroke-opacity="0.5"/>
        </g><g opacity="1">
          <rect x="56" y="110" width="340" height="180" rx="16" fill="#1C1C1C" stroke="#333" stroke-width="1.5"/>
          <rect x="80" y="138" width="120" height="14" rx="7" fill="#FF6B35"/>
          <rect x="80" y="172" width="280" height="10" rx="5" fill="#3A3A3A"/>
          <rect x="80" y="196" width="250" height="10" rx="5" fill="#3A3A3A"/>
          <rect x="80" y="220" width="265" height="10" rx="5" fill="#3A3A3A"/>
          <rect x="80" y="250" width="90" height="22" rx="11" fill="rgba(255,107,53,0.18)" stroke="#FF6B35" stroke-opacity="0.5"/>
        </g><text x="520" y="245" font-size="110" font-weight="bold" fill="#FF6B35">4,560</text>
              <text x="524" y="285" font-size="24" fill="#888" letter-spacing="4">PROMPTS</text>
              <text x="524" y="330" font-size="20" fill="#AAAAAA">20 categories · Excel + PDF</text>
  <text x="60" y="480" font-size="44" font-weight="bold" fill="#FFFFFF">Claude Prompt Pack</text>
  <text x="60" y="522" font-size="21" fill="#888">Fill-in-the-blank prompts for Claude AI</text>
  <g transform="translate(686,44) scale(0.14)">
    <rect width="512" height="512" rx="110" fill="#1C1C1C"/>
    <g transform="rotate(45 256 256)"><rect x="86" y="218" width="340" height="76" fill="#FFFFFF"/></g>
    <g transform="rotate(-45 256 256)"><rect x="86" y="218" width="340" height="76" fill="#FF6B35"/></g>
  </g>
</g>
<rect x="1" y="1" width="798" height="598" rx="27" fill="none" stroke="#FF6B35" stroke-opacity="0.35" stroke-width="2"/>
</svg>